<?xml version="1.0" encoding="UTF-8" standalone="no"?>
<!DOCTYPE svg PUBLIC "-//W3C//DTD SVG 1.1//EN"
 "http://www.w3.org/Graphics/SVG/1.1/DTD/svg11.dtd">
<!-- Generated by graphviz version 2.46.1 (20210213.1702)
 -->
<!-- Title: Torch.Core.Permissions.PermissionService.IsAllowed Pages: 1 -->
<svg width="392pt" height="88pt"
 viewBox="0.00 0.00 392.00 88.00" xmlns="http://www.w3.org/2000/svg" xmlns:xlink="http://www.w3.org/1999/xlink">
<g id="graph0" class="graph" transform="scale(1 1) rotate(0) translate(4 84)">
<title>Torch.Core.Permissions.PermissionService.IsAllowed</title>
<polygon fill="white" stroke="transparent" points="-4,4 -4,-84 388,-84 388,4 -4,4"/>
<!-- Node1 -->
<g id="node1" class="node">
<title>Node1</title>
<g id="a_node1"><a xlink:title=" ">
<polygon fill="#bfbfbf" stroke="black" points="0,-24.5 0,-54.5 173,-54.5 173,-24.5 0,-24.5"/>
<text text-anchor="start" x="8" y="-42.5" font-family="Helvetica,sans-Serif" font-size="10.00">Torch.Core.Permissions.Permission</text>
<text text-anchor="middle" x="86.5" y="-31.5" font-family="Helvetica,sans-Serif" font-size="10.00">Service.IsAllowed</text>
</a>
</g>
</g>
<!-- Node2 -->
<g id="node2" class="node">
<title>Node2</title>
<g id="a_node2"><a xlink:href="interface_torch_1_1_core_1_1_permissions_1_1_i_permission_evaluator.html#a091c43b80964d483e3209e573ff42eef" target="_top" xlink:title="Evaluates the permission node against this evaluator.">
<polygon fill="white" stroke="black" points="209,-49.5 209,-79.5 384,-79.5 384,-49.5 209,-49.5"/>
<text text-anchor="start" x="217" y="-67.5" font-family="Helvetica,sans-Serif" font-size="10.00">Torch.Core.Permissions.IPermission</text>
<text text-anchor="middle" x="296.5" y="-56.5" font-family="Helvetica,sans-Serif" font-size="10.00">Evaluator.Evaluate</text>
</a>
</g>
</g>
<!-- Node1&#45;&gt;Node2 -->
<g id="edge1" class="edge">
<title>Node1&#45;&gt;Node2</title>
<path fill="none" stroke="midnightblue" d="M173,-49.78C181.54,-50.8 190.25,-51.85 198.89,-52.89"/>
<polygon fill="midnightblue" stroke="midnightblue" points="198.64,-56.38 208.98,-54.1 199.47,-49.43 198.64,-56.38"/>
</g>
<!-- Node3 -->
<g id="node3" class="node">
<title>Node3</title>
<g id="a_node3"><a xlink:href="class_torch_1_1_core_1_1_permissions_1_1_permission_service.html#a2bb6090b6ddd9ccccc50e9491a7fe60e" target="_top" xlink:title="Get the IPermissionCollection associated with the ID in the given section.">
<polygon fill="white" stroke="black" points="210,-0.5 210,-30.5 383,-30.5 383,-0.5 210,-0.5"/>
<text text-anchor="start" x="218" y="-18.5" font-family="Helvetica,sans-Serif" font-size="10.00">Torch.Core.Permissions.Permission</text>
<text text-anchor="middle" x="296.5" y="-7.5" font-family="Helvetica,sans-Serif" font-size="10.00">Service.GetPermissions</text>
</a>
</g>
</g>
<!-- Node1&#45;&gt;Node3 -->
<g id="edge2" class="edge">
<title>Node1&#45;&gt;Node3</title>
<path fill="none" stroke="midnightblue" d="M173,-29.63C181.88,-28.61 190.94,-27.57 199.91,-26.53"/>
<polygon fill="midnightblue" stroke="midnightblue" points="200.46,-29.99 209.99,-25.37 199.66,-23.04 200.46,-29.99"/>
</g>
</g>
</svg>
