<?xml version="1.0" encoding="UTF-8" standalone="no"?>
<!DOCTYPE svg PUBLIC "-//W3C//DTD SVG 1.1//EN"
 "http://www.w3.org/Graphics/SVG/1.1/DTD/svg11.dtd">
<!-- Generated by graphviz version 2.46.1 (20210213.1702)
 -->
<!-- Title: Torch.Core.Plugins.Plugin Pages: 1 -->
<svg width="288pt" height="95pt"
 viewBox="0.00 0.00 288.00 95.00" xmlns="http://www.w3.org/2000/svg" xmlns:xlink="http://www.w3.org/1999/xlink">
<g id="graph0" class="graph" transform="scale(1 1) rotate(0) translate(4 91)">
<title>Torch.Core.Plugins.Plugin</title>
<polygon fill="white" stroke="transparent" points="-4,4 -4,-91 284,-91 284,4 -4,4"/>
<!-- Node1 -->
<g id="node1" class="node">
<title>Node1</title>
<g id="a_node1"><a xlink:title=" ">
<polygon fill="#bfbfbf" stroke="black" points="65,-67.5 65,-86.5 194,-86.5 194,-67.5 65,-67.5"/>
<text text-anchor="middle" x="129.5" y="-74.5" font-family="Helvetica,sans-Serif" font-size="10.00">Torch.Core.Plugins.Plugin</text>
</a>
</g>
</g>
<!-- Node2 -->
<g id="node2" class="node">
<title>Node2</title>
<g id="a_node2"><a xlink:href="class_test_plugin_1_1_test_plugin.html" target="_top" xlink:title="The entry point of the plugin. Any plugin must define exactly one subtype of Plugin to be valid.">
<polygon fill="white" stroke="black" points="0,-6 0,-25 111,-25 111,-6 0,-6"/>
<text text-anchor="middle" x="55.5" y="-13" font-family="Helvetica,sans-Serif" font-size="10.00">TestPlugin.TestPlugin</text>
</a>
</g>
</g>
<!-- Node1&#45;&gt;Node2 -->
<g id="edge1" class="edge">
<title>Node1&#45;&gt;Node2</title>
<path fill="none" stroke="midnightblue" d="M110.81,-60.97C96.66,-49.59 77.72,-34.37 66.08,-25.01"/>
<polygon fill="midnightblue" stroke="midnightblue" points="108.91,-63.94 118.9,-67.48 113.3,-58.48 108.91,-63.94"/>
</g>
<!-- Node3 -->
<g id="node3" class="node">
<title>Node3</title>
<g id="a_node3"><a xlink:href="class_torch_1_1_space_engineers_1_1_s_e_dedi_plugin.html" target="_top" xlink:title=" ">
<polygon fill="white" stroke="black" points="129,-0.5 129,-30.5 280,-30.5 280,-0.5 129,-0.5"/>
<text text-anchor="start" x="137" y="-18.5" font-family="Helvetica,sans-Serif" font-size="10.00">Torch.SpaceEngineers.SEDedi</text>
<text text-anchor="middle" x="204.5" y="-7.5" font-family="Helvetica,sans-Serif" font-size="10.00">Plugin</text>
</a>
</g>
</g>
<!-- Node1&#45;&gt;Node3 -->
<g id="edge2" class="edge">
<title>Node1&#45;&gt;Node3</title>
<path fill="none" stroke="midnightblue" d="M148.16,-61.2C159.99,-51.81 175.19,-39.75 186.82,-30.52"/>
<polygon fill="midnightblue" stroke="midnightblue" points="145.9,-58.52 140.25,-67.48 150.26,-64 145.9,-58.52"/>
</g>
</g>
</svg>
