<?xml version="1.0" encoding="UTF-8" standalone="no"?>
<!DOCTYPE svg PUBLIC "-//W3C//DTD SVG 1.1//EN"
 "http://www.w3.org/Graphics/SVG/1.1/DTD/svg11.dtd">
<!-- Generated by graphviz version 2.46.1 (20210213.1702)
 -->
<!-- Title: Torch.Core.Commands.StopCommand.Execute Pages: 1 -->
<svg width="350pt" height="78pt"
 viewBox="0.00 0.00 350.00 77.50" xmlns="http://www.w3.org/2000/svg" xmlns:xlink="http://www.w3.org/1999/xlink">
<g id="graph0" class="graph" transform="scale(1 1) rotate(0) translate(4 73.5)">
<title>Torch.Core.Commands.StopCommand.Execute</title>
<polygon fill="white" stroke="transparent" points="-4,4 -4,-73.5 346,-73.5 346,4 -4,4"/>
<!-- Node1 -->
<g id="node1" class="node">
<title>Node1</title>
<g id="a_node1"><a xlink:title="Executes the command with the given command context. This should only be called if CanExecute returns...">
<polygon fill="#bfbfbf" stroke="black" points="0,-17 0,-47 140,-47 140,-17 0,-17"/>
<text text-anchor="start" x="8" y="-35" font-family="Helvetica,sans-Serif" font-size="10.00">Torch.Core.Commands.Stop</text>
<text text-anchor="middle" x="70" y="-24" font-family="Helvetica,sans-Serif" font-size="10.00">Command.Execute</text>
</a>
</g>
</g>
<!-- Node2 -->
<g id="node2" class="node">
<title>Node2</title>
<g id="a_node2"><a xlink:href="interface_torch_1_1_core_1_1_commands_1_1_i_command_context.html#ae6255527f2a7127fde2a94cd1718d0d5" target="_top" xlink:title=" ">
<polygon fill="white" stroke="black" points="176,-39 176,-69 342,-69 342,-39 176,-39"/>
<text text-anchor="start" x="184" y="-57" font-family="Helvetica,sans-Serif" font-size="10.00">Torch.Core.Commands.ICommand</text>
<text text-anchor="middle" x="259" y="-46" font-family="Helvetica,sans-Serif" font-size="10.00">Context.Respond</text>
</a>
</g>
</g>
<!-- Node1&#45;&gt;Node2 -->
<g id="edge1" class="edge">
<title>Node1&#45;&gt;Node2</title>
<path fill="none" stroke="midnightblue" d="M140.1,-40.13C148.48,-41.11 157.13,-42.13 165.77,-43.15"/>
<polygon fill="midnightblue" stroke="midnightblue" points="165.55,-46.65 175.89,-44.34 166.37,-39.7 165.55,-46.65"/>
</g>
<!-- Node3 -->
<g id="node3" class="node">
<title>Node3</title>
<g id="a_node3"><a xlink:href="interface_torch_1_1_core_1_1_i_torch_core.html#ab4e299b713ccf4f4b234ff39defd192a" target="_top" xlink:title="Signal the core to complete execution and stop.">
<polygon fill="white" stroke="black" points="177,-0.5 177,-19.5 341,-19.5 341,-0.5 177,-0.5"/>
<text text-anchor="middle" x="259" y="-7.5" font-family="Helvetica,sans-Serif" font-size="10.00">Torch.Core.ITorchCore.SignalStop</text>
</a>
</g>
</g>
<!-- Node1&#45;&gt;Node3 -->
<g id="edge2" class="edge">
<title>Node1&#45;&gt;Node3</title>
<path fill="none" stroke="midnightblue" d="M140.1,-23.87C148.87,-22.84 157.95,-21.77 166.99,-20.71"/>
<polygon fill="midnightblue" stroke="midnightblue" points="167.65,-24.15 177.17,-19.51 166.83,-17.2 167.65,-24.15"/>
</g>
</g>
</svg>
