<?xml version="1.0" encoding="UTF-8" standalone="no"?>
<!DOCTYPE svg PUBLIC "-//W3C//DTD SVG 1.1//EN"
 "http://www.w3.org/Graphics/SVG/1.1/DTD/svg11.dtd">
<!-- Generated by graphviz version 2.46.1 (20210213.1702)
 -->
<!-- Title: Torch.Core.Reflection.MethodProxy.CreateStatic&lt; TDel, TOwner &gt; Pages: 1 -->
<svg width="334pt" height="50pt"
 viewBox="0.00 0.00 334.00 50.00" xmlns="http://www.w3.org/2000/svg" xmlns:xlink="http://www.w3.org/1999/xlink">
<g id="graph0" class="graph" transform="scale(1 1) rotate(0) translate(4 46)">
<title>Torch.Core.Reflection.MethodProxy.CreateStatic&lt; TDel, TOwner &gt;</title>
<polygon fill="white" stroke="transparent" points="-4,4 -4,-46 330,-46 330,4 -4,4"/>
<!-- Node1 -->
<g id="node1" class="node">
<title>Node1</title>
<g id="a_node1"><a xlink:title=" ">
<polygon fill="#bfbfbf" stroke="black" points="0,-0.5 0,-41.5 145,-41.5 145,-0.5 0,-0.5"/>
<text text-anchor="start" x="8" y="-29.5" font-family="Helvetica,sans-Serif" font-size="10.00">Torch.Core.Reflection.Method</text>
<text text-anchor="start" x="8" y="-18.5" font-family="Helvetica,sans-Serif" font-size="10.00">Proxy.CreateStatic&lt; TDel,</text>
<text text-anchor="middle" x="72.5" y="-7.5" font-family="Helvetica,sans-Serif" font-size="10.00"> TOwner &gt;</text>
</a>
</g>
</g>
<!-- Node2 -->
<g id="node2" class="node">
<title>Node2</title>
<g id="a_node2"><a xlink:href="class_torch_1_1_core_1_1_reflection_1_1_method_proxy.html#a8da464665a322178cf7fead3b797b90e" target="_top" xlink:title=" ">
<polygon fill="white" stroke="black" points="181,-6 181,-36 326,-36 326,-6 181,-6"/>
<text text-anchor="start" x="189" y="-24" font-family="Helvetica,sans-Serif" font-size="10.00">Torch.Core.Reflection.Method</text>
<text text-anchor="middle" x="253.5" y="-13" font-family="Helvetica,sans-Serif" font-size="10.00">Proxy.Create&lt; TDel &gt;</text>
</a>
</g>
</g>
<!-- Node1&#45;&gt;Node2 -->
<g id="edge1" class="edge">
<title>Node1&#45;&gt;Node2</title>
<path fill="none" stroke="midnightblue" d="M145.02,-21C153.49,-21 162.18,-21 170.78,-21"/>
<polygon fill="midnightblue" stroke="midnightblue" points="170.8,-24.5 180.8,-21 170.8,-17.5 170.8,-24.5"/>
</g>
</g>
</svg>
