<?xml version="1.0" encoding="UTF-8" standalone="no"?>
<!DOCTYPE svg PUBLIC "-//W3C//DTD SVG 1.1//EN"
 "http://www.w3.org/Graphics/SVG/1.1/DTD/svg11.dtd">
<!-- Generated by graphviz version 2.46.1 (20210213.1702)
 -->
<!-- Title: Torch.Core.Commands.Common.StopCommand.Execute Pages: 1 -->
<svg width="371pt" height="78pt"
 viewBox="0.00 0.00 371.00 77.50" xmlns="http://www.w3.org/2000/svg" xmlns:xlink="http://www.w3.org/1999/xlink">
<g id="graph0" class="graph" transform="scale(1 1) rotate(0) translate(4 73.5)">
<title>Torch.Core.Commands.Common.StopCommand.Execute</title>
<polygon fill="white" stroke="transparent" points="-4,4 -4,-73.5 367,-73.5 367,4 -4,4"/>
<!-- Node1 -->
<g id="node1" class="node">
<title>Node1</title>
<g id="a_node1"><a xlink:title="Executes the command with the given command context. This should only be called if CanExecute returns...">
<polygon fill="#bfbfbf" stroke="black" points="0,-17 0,-47 161,-47 161,-17 0,-17"/>
<text text-anchor="start" x="8" y="-35" font-family="Helvetica,sans-Serif" font-size="10.00">Torch.Core.Commands.Common.</text>
<text text-anchor="middle" x="80.5" y="-24" font-family="Helvetica,sans-Serif" font-size="10.00">StopCommand.Execute</text>
</a>
</g>
</g>
<!-- Node2 -->
<g id="node2" class="node">
<title>Node2</title>
<g id="a_node2"><a xlink:href="interface_torch_1_1_core_1_1_commands_1_1_i_command_context.html#ae6255527f2a7127fde2a94cd1718d0d5" target="_top" xlink:title=" ">
<polygon fill="white" stroke="black" points="197,-39 197,-69 363,-69 363,-39 197,-39"/>
<text text-anchor="start" x="205" y="-57" font-family="Helvetica,sans-Serif" font-size="10.00">Torch.Core.Commands.ICommand</text>
<text text-anchor="middle" x="280" y="-46" font-family="Helvetica,sans-Serif" font-size="10.00">Context.Respond</text>
</a>
</g>
</g>
<!-- Node1&#45;&gt;Node2 -->
<g id="edge1" class="edge">
<title>Node1&#45;&gt;Node2</title>
<path fill="none" stroke="midnightblue" d="M161.26,-40.88C169.65,-41.82 178.23,-42.77 186.74,-43.72"/>
<polygon fill="midnightblue" stroke="midnightblue" points="186.36,-47.2 196.69,-44.83 187.14,-40.25 186.36,-47.2"/>
</g>
<!-- Node3 -->
<g id="node3" class="node">
<title>Node3</title>
<g id="a_node3"><a xlink:href="interface_torch_1_1_core_1_1_i_torch_core.html#ab4e299b713ccf4f4b234ff39defd192a" target="_top" xlink:title="Signal the core to complete execution and stop.">
<polygon fill="white" stroke="black" points="198,-0.5 198,-19.5 362,-19.5 362,-0.5 198,-0.5"/>
<text text-anchor="middle" x="280" y="-7.5" font-family="Helvetica,sans-Serif" font-size="10.00">Torch.Core.ITorchCore.SignalStop</text>
</a>
</g>
</g>
<!-- Node1&#45;&gt;Node3 -->
<g id="edge2" class="edge">
<title>Node1&#45;&gt;Node3</title>
<path fill="none" stroke="midnightblue" d="M161.26,-23.12C170.05,-22.14 179.05,-21.13 187.96,-20.14"/>
<polygon fill="midnightblue" stroke="midnightblue" points="188.42,-23.61 197.98,-19.03 187.65,-16.65 188.42,-23.61"/>
</g>
</g>
</svg>
