<?xml version="1.0" encoding="UTF-8" standalone="no"?>
<!DOCTYPE svg PUBLIC "-//W3C//DTD SVG 1.1//EN"
 "http://www.w3.org/Graphics/SVG/1.1/DTD/svg11.dtd">
<!-- Generated by graphviz version 2.46.1 (20210213.1702)
 -->
<!-- Title: Torch.Core.Reflection.MethodProxy.Create&lt; TDel &gt; Pages: 1 -->
<svg width="334pt" height="100pt"
 viewBox="0.00 0.00 334.00 99.50" xmlns="http://www.w3.org/2000/svg" xmlns:xlink="http://www.w3.org/1999/xlink">
<g id="graph0" class="graph" transform="scale(1 1) rotate(0) translate(4 95.5)">
<title>Torch.Core.Reflection.MethodProxy.Create&lt; TDel &gt;</title>
<polygon fill="white" stroke="transparent" points="-4,4 -4,-95.5 330,-95.5 330,4 -4,4"/>
<!-- Node1 -->
<g id="node1" class="node">
<title>Node1</title>
<g id="a_node1"><a xlink:title=" ">
<polygon fill="#bfbfbf" stroke="black" points="181,-33 181,-63 326,-63 326,-33 181,-33"/>
<text text-anchor="start" x="189" y="-51" font-family="Helvetica,sans-Serif" font-size="10.00">Torch.Core.Reflection.Method</text>
<text text-anchor="middle" x="253.5" y="-40" font-family="Helvetica,sans-Serif" font-size="10.00">Proxy.Create&lt; TDel &gt;</text>
</a>
</g>
</g>
<!-- Node2 -->
<g id="node2" class="node">
<title>Node2</title>
<g id="a_node2"><a xlink:href="class_torch_1_1_core_1_1_reflection_1_1_method_proxy.html#a50c48e3cdaa6978ff0af7ded0b11cdaa" target="_top" xlink:title=" ">
<polygon fill="white" stroke="black" points="0,-61 0,-91 145,-91 145,-61 0,-61"/>
<text text-anchor="start" x="8" y="-79" font-family="Helvetica,sans-Serif" font-size="10.00">Torch.Core.Reflection.Method</text>
<text text-anchor="middle" x="72.5" y="-68" font-family="Helvetica,sans-Serif" font-size="10.00">Proxy.CreateStatic&lt; TDel &gt;</text>
</a>
</g>
</g>
<!-- Node1&#45;&gt;Node2 -->
<g id="edge1" class="edge">
<title>Node1&#45;&gt;Node2</title>
<path fill="none" stroke="midnightblue" d="M170.96,-60.76C162.36,-62.1 153.67,-63.46 145.2,-64.79"/>
<polygon fill="midnightblue" stroke="midnightblue" points="171.64,-64.19 180.98,-59.19 170.56,-57.27 171.64,-64.19"/>
</g>
<!-- Node3 -->
<g id="node3" class="node">
<title>Node3</title>
<g id="a_node3"><a xlink:href="class_torch_1_1_core_1_1_reflection_1_1_method_proxy.html#a6b79fb811b2e54a136648895a9c4ff51" target="_top" xlink:title=" ">
<polygon fill="white" stroke="black" points="0,-0.5 0,-41.5 145,-41.5 145,-0.5 0,-0.5"/>
<text text-anchor="start" x="8" y="-29.5" font-family="Helvetica,sans-Serif" font-size="10.00">Torch.Core.Reflection.Method</text>
<text text-anchor="start" x="8" y="-18.5" font-family="Helvetica,sans-Serif" font-size="10.00">Proxy.CreateStatic&lt; TDel,</text>
<text text-anchor="middle" x="72.5" y="-7.5" font-family="Helvetica,sans-Serif" font-size="10.00"> TOwner &gt;</text>
</a>
</g>
</g>
<!-- Node1&#45;&gt;Node3 -->
<g id="edge2" class="edge">
<title>Node1&#45;&gt;Node3</title>
<path fill="none" stroke="midnightblue" d="M170.96,-35.7C162.36,-34.4 153.67,-33.09 145.2,-31.81"/>
<polygon fill="midnightblue" stroke="midnightblue" points="170.57,-39.18 180.98,-37.21 171.62,-32.26 170.57,-39.18"/>
</g>
</g>
</svg>
