<?xml version="1.0" encoding="UTF-8" standalone="no"?>
<!DOCTYPE svg PUBLIC "-//W3C//DTD SVG 1.1//EN"
 "http://www.w3.org/Graphics/SVG/1.1/DTD/svg11.dtd">
<!-- Generated by graphviz version 2.46.1 (20210213.1702)
 -->
<!-- Title: Torch.Core.Plugins.Plugin Pages: 1 -->
<svg width="284pt" height="95pt"
 viewBox="0.00 0.00 283.50 95.00" xmlns="http://www.w3.org/2000/svg" xmlns:xlink="http://www.w3.org/1999/xlink">
<g id="graph0" class="graph" transform="scale(1 1) rotate(0) translate(4 91)">
<title>Torch.Core.Plugins.Plugin</title>
<polygon fill="white" stroke="transparent" points="-4,4 -4,-91 279.5,-91 279.5,4 -4,4"/>
<!-- Node1 -->
<g id="node1" class="node">
<title>Node1</title>
<g id="a_node1"><a xlink:title=" ">
<polygon fill="#bfbfbf" stroke="black" points="64,-67.5 64,-86.5 193,-86.5 193,-67.5 64,-67.5"/>
<text text-anchor="middle" x="128.5" y="-74.5" font-family="Helvetica,sans-Serif" font-size="10.00">Torch.Core.Plugins.Plugin</text>
</a>
</g>
</g>
<!-- Node2 -->
<g id="node2" class="node">
<title>Node2</title>
<g id="a_node2"><a xlink:href="class_test_plugin_1_1_test_plugin.html" target="_top" xlink:title="The entry point of the plugin. Any plugin must define exactly one subtype of Plugin to be valid.">
<polygon fill="white" stroke="black" points="0,-6 0,-25 111,-25 111,-6 0,-6"/>
<text text-anchor="middle" x="55.5" y="-13" font-family="Helvetica,sans-Serif" font-size="10.00">TestPlugin.TestPlugin</text>
</a>
</g>
</g>
<!-- Node1&#45;&gt;Node2 -->
<g id="edge1" class="edge">
<title>Node1&#45;&gt;Node2</title>
<path fill="none" stroke="midnightblue" d="M110.06,-60.97C96.1,-49.59 77.42,-34.37 65.94,-25.01"/>
<polygon fill="midnightblue" stroke="midnightblue" points="108.08,-63.87 118.04,-67.48 112.5,-58.44 108.08,-63.87"/>
</g>
<!-- Node3 -->
<g id="node3" class="node">
<title>Node3</title>
<g id="a_node3"><a xlink:href="class_torch_1_1_space_engineers_1_1_space_dedi_plugin.html" target="_top" xlink:title="Provides a core and supporting services for running a Space Engineers dedicated server under Torch.">
<polygon fill="white" stroke="black" points="129.5,-0.5 129.5,-30.5 275.5,-30.5 275.5,-0.5 129.5,-0.5"/>
<text text-anchor="start" x="137.5" y="-18.5" font-family="Helvetica,sans-Serif" font-size="10.00">Torch.SpaceEngineers.Space</text>
<text text-anchor="middle" x="202.5" y="-7.5" font-family="Helvetica,sans-Serif" font-size="10.00">DediPlugin</text>
</a>
</g>
</g>
<!-- Node1&#45;&gt;Node3 -->
<g id="edge2" class="edge">
<title>Node1&#45;&gt;Node3</title>
<path fill="none" stroke="midnightblue" d="M146.91,-61.2C158.58,-51.81 173.58,-39.75 185.06,-30.52"/>
<polygon fill="midnightblue" stroke="midnightblue" points="144.7,-58.48 139.1,-67.48 149.09,-63.94 144.7,-58.48"/>
</g>
</g>
</svg>
