<?xml version="1.0" encoding="UTF-8" standalone="no"?>
<!DOCTYPE svg PUBLIC "-//W3C//DTD SVG 1.1//EN"
 "http://www.w3.org/Graphics/SVG/1.1/DTD/svg11.dtd">
<!-- Generated by graphviz version 2.46.1 (20210213.1702)
 -->
<!-- Title: Graphical Class Hierarchy Pages: 1 -->
<svg width="303pt" height="78pt"
 viewBox="0.00 0.00 303.00 77.50" xmlns="http://www.w3.org/2000/svg" xmlns:xlink="http://www.w3.org/1999/xlink">
<g id="graph0" class="graph" transform="scale(1 1) rotate(0) translate(4 73.5)">
<title>Graphical Class Hierarchy</title>
<polygon fill="white" stroke="transparent" points="-4,4 -4,-73.5 299,-73.5 299,4 -4,4"/>
<!-- Node0 -->
<g id="node1" class="node">
<title>Node0</title>
<g id="a_node1"><a xlink:href="interface_torch_1_1_core_1_1_i_torch_core.html" target="_top" xlink:title="Represents an object responsible for controlling the lifetime of the Torch application.">
<polygon fill="white" stroke="black" points="0,-28 0,-47 113,-47 113,-28 0,-28"/>
<text text-anchor="middle" x="56.5" y="-35" font-family="Helvetica,sans-Serif" font-size="10.00">Torch.Core.ITorchCore</text>
</a>
</g>
</g>
<!-- Node1 -->
<g id="node2" class="node">
<title>Node1</title>
<g id="a_node2"><a xlink:href="class_test_plugin_1_1_test_core.html" target="_top" xlink:title="Test core implementation.">
<polygon fill="white" stroke="black" points="170,-50 170,-69 274,-69 274,-50 170,-50"/>
<text text-anchor="middle" x="222" y="-57" font-family="Helvetica,sans-Serif" font-size="10.00">TestPlugin.TestCore</text>
</a>
</g>
</g>
<!-- Node0&#45;&gt;Node1 -->
<g id="edge1" class="edge">
<title>Node0&#45;&gt;Node1</title>
<path fill="none" stroke="midnightblue" d="M123.35,-46.36C138.83,-48.44 155.11,-50.63 169.84,-52.62"/>
<polygon fill="midnightblue" stroke="midnightblue" points="123.69,-42.87 113.31,-45.01 122.75,-49.81 123.69,-42.87"/>
</g>
<!-- Node2 -->
<g id="node3" class="node">
<title>Node2</title>
<g id="a_node3"><a xlink:href="class_torch_1_1_space_engineers_1_1_space_dedi_core.html" target="_top" xlink:title="Runs a Space Engineers Dedicated server.">
<polygon fill="white" stroke="black" points="149,-0.5 149,-30.5 295,-30.5 295,-0.5 149,-0.5"/>
<text text-anchor="start" x="157" y="-18.5" font-family="Helvetica,sans-Serif" font-size="10.00">Torch.SpaceEngineers.Space</text>
<text text-anchor="middle" x="222" y="-7.5" font-family="Helvetica,sans-Serif" font-size="10.00">DediCore</text>
</a>
</g>
</g>
<!-- Node0&#45;&gt;Node2 -->
<g id="edge2" class="edge">
<title>Node0&#45;&gt;Node2</title>
<path fill="none" stroke="midnightblue" d="M123.42,-28.63C131.83,-27.5 140.47,-26.34 148.96,-25.19"/>
<polygon fill="midnightblue" stroke="midnightblue" points="122.75,-25.19 113.31,-29.99 123.69,-32.13 122.75,-25.19"/>
</g>
</g>
</svg>
