<?xml version="1.0" encoding="UTF-8" standalone="no"?>
<!DOCTYPE svg PUBLIC "-//W3C//DTD SVG 1.1//EN"
 "http://www.w3.org/Graphics/SVG/1.1/DTD/svg11.dtd">
<!-- Generated by graphviz version 2.46.1 (20210213.1702)
 -->
<!-- Title: Graphical Class Hierarchy Pages: 1 -->
<svg width="368pt" height="127pt"
 viewBox="0.00 0.00 368.00 126.50" xmlns="http://www.w3.org/2000/svg" xmlns:xlink="http://www.w3.org/1999/xlink">
<g id="graph0" class="graph" transform="scale(1 1) rotate(0) translate(4 122.5)">
<title>Graphical Class Hierarchy</title>
<polygon fill="white" stroke="transparent" points="-4,4 -4,-122.5 364,-122.5 364,4 -4,4"/>
<!-- Node0 -->
<g id="node1" class="node">
<title>Node0</title>
<g id="a_node1"><a xlink:href="interface_torch_1_1_core_1_1_commands_1_1_i_command.html" target="_top" xlink:title=" ">
<polygon fill="white" stroke="black" points="0,-44.5 0,-63.5 166,-63.5 166,-44.5 0,-44.5"/>
<text text-anchor="middle" x="83" y="-51.5" font-family="Helvetica,sans-Serif" font-size="10.00">Torch.Core.Commands.ICommand</text>
</a>
</g>
</g>
<!-- Node1 -->
<g id="node2" class="node">
<title>Node1</title>
<g id="a_node2"><a xlink:href="class_torch_1_1_core_1_1_commands_1_1_delegate_command.html" target="_top" xlink:title=" ">
<polygon fill="white" stroke="black" points="202,-88 202,-118 360,-118 360,-88 202,-88"/>
<text text-anchor="start" x="210" y="-106" font-family="Helvetica,sans-Serif" font-size="10.00">Torch.Core.Commands.Delegate</text>
<text text-anchor="middle" x="281" y="-95" font-family="Helvetica,sans-Serif" font-size="10.00">Command</text>
</a>
</g>
</g>
<!-- Node0&#45;&gt;Node1 -->
<g id="edge1" class="edge">
<title>Node0&#45;&gt;Node1</title>
<path fill="none" stroke="midnightblue" d="M132.06,-66.01C158.54,-72.64 191.66,-80.92 219.85,-87.96"/>
<polygon fill="midnightblue" stroke="midnightblue" points="132.81,-62.59 122.26,-63.56 131.11,-69.38 132.81,-62.59"/>
</g>
<!-- Node2 -->
<g id="node3" class="node">
<title>Node2</title>
<g id="a_node3"><a xlink:href="class_torch_1_1_core_1_1_commands_1_1_stop_command.html" target="_top" xlink:title=" ">
<polygon fill="white" stroke="black" points="211,-39 211,-69 351,-69 351,-39 211,-39"/>
<text text-anchor="start" x="219" y="-57" font-family="Helvetica,sans-Serif" font-size="10.00">Torch.Core.Commands.Stop</text>
<text text-anchor="middle" x="281" y="-46" font-family="Helvetica,sans-Serif" font-size="10.00">Command</text>
</a>
</g>
</g>
<!-- Node0&#45;&gt;Node2 -->
<g id="edge2" class="edge">
<title>Node0&#45;&gt;Node2</title>
<path fill="none" stroke="midnightblue" d="M176.44,-54C188.06,-54 199.79,-54 210.97,-54"/>
<polygon fill="midnightblue" stroke="midnightblue" points="176.27,-50.5 166.27,-54 176.27,-57.5 176.27,-50.5"/>
</g>
<!-- Node3 -->
<g id="node4" class="node">
<title>Node3</title>
<g id="a_node4"><a xlink:href="class_torch_1_1_core_1_1_plugins_command.html" target="_top" xlink:title=" ">
<polygon fill="white" stroke="black" points="209.5,-0.5 209.5,-19.5 352.5,-19.5 352.5,-0.5 209.5,-0.5"/>
<text text-anchor="middle" x="281" y="-7.5" font-family="Helvetica,sans-Serif" font-size="10.00">Torch.Core.PluginsCommand</text>
</a>
</g>
</g>
<!-- Node0&#45;&gt;Node3 -->
<g id="edge3" class="edge">
<title>Node0&#45;&gt;Node3</title>
<path fill="none" stroke="midnightblue" d="M136.49,-42.22C168.13,-35.11 207.91,-26.18 237.55,-19.53"/>
<polygon fill="midnightblue" stroke="midnightblue" points="135.52,-38.85 126.53,-44.45 137.05,-45.68 135.52,-38.85"/>
</g>
</g>
</svg>
