<?xml version="1.0" encoding="UTF-8" standalone="no"?>
<!DOCTYPE svg PUBLIC "-//W3C//DTD SVG 1.1//EN"
 "http://www.w3.org/Graphics/SVG/1.1/DTD/svg11.dtd">
<!-- Generated by graphviz version 2.46.1 (20210213.1702)
 -->
<!-- Title: Graphical Class Hierarchy Pages: 1 -->
<svg width="319pt" height="78pt"
 viewBox="0.00 0.00 319.00 77.50" xmlns="http://www.w3.org/2000/svg" xmlns:xlink="http://www.w3.org/1999/xlink">
<g id="graph0" class="graph" transform="scale(1 1) rotate(0) translate(4 73.5)">
<title>Graphical Class Hierarchy</title>
<polygon fill="white" stroke="transparent" points="-4,4 -4,-73.5 315,-73.5 315,4 -4,4"/>
<!-- Node0 -->
<g id="node1" class="node">
<title>Node0</title>
<g id="a_node1"><a xlink:href="class_torch_1_1_core_1_1_plugins_1_1_plugin.html" target="_top" xlink:title=" ">
<polygon fill="white" stroke="black" points="0,-28 0,-47 129,-47 129,-28 0,-28"/>
<text text-anchor="middle" x="64.5" y="-35" font-family="Helvetica,sans-Serif" font-size="10.00">Torch.Core.Plugins.Plugin</text>
</a>
</g>
</g>
<!-- Node1 -->
<g id="node2" class="node">
<title>Node1</title>
<g id="a_node2"><a xlink:href="class_test_plugin_1_1_test_plugin.html" target="_top" xlink:title="The entry point of the plugin. Any plugin must define exactly one subtype of Plugin to be valid.">
<polygon fill="white" stroke="black" points="182.5,-50 182.5,-69 293.5,-69 293.5,-50 182.5,-50"/>
<text text-anchor="middle" x="238" y="-57" font-family="Helvetica,sans-Serif" font-size="10.00">TestPlugin.TestPlugin</text>
</a>
</g>
</g>
<!-- Node0&#45;&gt;Node1 -->
<g id="edge1" class="edge">
<title>Node0&#45;&gt;Node1</title>
<path fill="none" stroke="midnightblue" d="M139.28,-46.96C153.74,-48.82 168.67,-50.73 182.37,-52.49"/>
<polygon fill="midnightblue" stroke="midnightblue" points="139.72,-43.49 129.36,-45.69 138.83,-50.44 139.72,-43.49"/>
</g>
<!-- Node2 -->
<g id="node3" class="node">
<title>Node2</title>
<g id="a_node3"><a xlink:href="class_torch_1_1_space_engineers_1_1_space_dedi_plugin.html" target="_top" xlink:title="Provides a core and supporting services for running a Space Engineers dedicated server under Torch.">
<polygon fill="white" stroke="black" points="165,-0.5 165,-30.5 311,-30.5 311,-0.5 165,-0.5"/>
<text text-anchor="start" x="173" y="-18.5" font-family="Helvetica,sans-Serif" font-size="10.00">Torch.SpaceEngineers.Space</text>
<text text-anchor="middle" x="238" y="-7.5" font-family="Helvetica,sans-Serif" font-size="10.00">DediPlugin</text>
</a>
</g>
</g>
<!-- Node0&#45;&gt;Node2 -->
<g id="edge2" class="edge">
<title>Node0&#45;&gt;Node2</title>
<path fill="none" stroke="midnightblue" d="M139.47,-28.01C147.84,-26.94 156.37,-25.84 164.72,-24.77"/>
<polygon fill="midnightblue" stroke="midnightblue" points="138.83,-24.56 129.36,-29.31 139.72,-31.51 138.83,-24.56"/>
</g>
</g>
</svg>
