<?xml version="1.0" encoding="UTF-8" standalone="no"?>
<!DOCTYPE svg PUBLIC "-//W3C//DTD SVG 1.1//EN"
 "http://www.w3.org/Graphics/SVG/1.1/DTD/svg11.dtd">
<!-- Generated by graphviz version 2.46.1 (20210213.1702)
 -->
<!-- Title: Graphical Class Hierarchy Pages: 1 -->
<svg width="328pt" height="66pt"
 viewBox="0.00 0.00 328.00 66.00" xmlns="http://www.w3.org/2000/svg" xmlns:xlink="http://www.w3.org/1999/xlink">
<g id="graph0" class="graph" transform="scale(1 1) rotate(0) translate(4 62)">
<title>Graphical Class Hierarchy</title>
<polygon fill="white" stroke="transparent" points="-4,4 -4,-62 324,-62 324,4 -4,4"/>
<!-- Node0 -->
<g id="node1" class="node">
<title>Node0</title>
<g id="a_node1"><a xlink:href="interface_torch_1_1_core_1_1_i_torch_core.html" target="_top" xlink:title="Represents an object responsible for controlling the lifetime of the Torch application.">
<polygon fill="white" stroke="black" points="0,-19.5 0,-38.5 113,-38.5 113,-19.5 0,-19.5"/>
<text text-anchor="middle" x="56.5" y="-26.5" font-family="Helvetica,sans-Serif" font-size="10.00">Torch.Core.ITorchCore</text>
</a>
</g>
</g>
<!-- Node1 -->
<g id="node2" class="node">
<title>Node1</title>
<g id="a_node2"><a xlink:href="class_test_plugin_1_1_test_core.html" target="_top" xlink:title=" ">
<polygon fill="white" stroke="black" points="182.5,-38.5 182.5,-57.5 286.5,-57.5 286.5,-38.5 182.5,-38.5"/>
<text text-anchor="middle" x="234.5" y="-45.5" font-family="Helvetica,sans-Serif" font-size="10.00">TestPlugin.TestCore</text>
</a>
</g>
</g>
<!-- Node0&#45;&gt;Node1 -->
<g id="edge1" class="edge">
<title>Node0&#45;&gt;Node1</title>
<path fill="none" stroke="midnightblue" d="M123.24,-36.1C142.78,-38.21 163.89,-40.49 182.36,-42.48"/>
<polygon fill="midnightblue" stroke="midnightblue" points="123.51,-32.61 113.19,-35.01 122.75,-39.56 123.51,-32.61"/>
</g>
<!-- Node2 -->
<g id="node3" class="node">
<title>Node2</title>
<g id="a_node3"><a xlink:href="class_torch_1_1_space_engineers_1_1_s_e_dedi_core.html" target="_top" xlink:title=" ">
<polygon fill="white" stroke="black" points="149,-0.5 149,-19.5 320,-19.5 320,-0.5 149,-0.5"/>
<text text-anchor="middle" x="234.5" y="-7.5" font-family="Helvetica,sans-Serif" font-size="10.00">Torch.SpaceEngineers.SEDediCore</text>
</a>
</g>
</g>
<!-- Node0&#45;&gt;Node2 -->
<g id="edge2" class="edge">
<title>Node0&#45;&gt;Node2</title>
<path fill="none" stroke="midnightblue" d="M123.24,-21.9C131.62,-21 140.29,-20.06 148.92,-19.13"/>
<polygon fill="midnightblue" stroke="midnightblue" points="122.75,-18.44 113.19,-22.99 123.51,-25.39 122.75,-18.44"/>
</g>
</g>
</svg>
