<?xml version="1.0" encoding="UTF-8" standalone="no"?>
<!DOCTYPE svg PUBLIC "-//W3C//DTD SVG 1.1//EN"
 "http://www.w3.org/Graphics/SVG/1.1/DTD/svg11.dtd">
<!-- Generated by graphviz version 2.46.1 (20210213.1702)
 -->
<!-- Title: Torch.Core.Commands.ICommandContext.Respond Pages: 1 -->
<svg width="356pt" height="88pt"
 viewBox="0.00 0.00 356.00 88.00" xmlns="http://www.w3.org/2000/svg" xmlns:xlink="http://www.w3.org/1999/xlink">
<g id="graph0" class="graph" transform="scale(1 1) rotate(0) translate(4 84)">
<title>Torch.Core.Commands.ICommandContext.Respond</title>
<polygon fill="white" stroke="transparent" points="-4,4 -4,-84 352,-84 352,4 -4,4"/>
<!-- Node1 -->
<g id="node1" class="node">
<title>Node1</title>
<g id="a_node1"><a xlink:title=" ">
<polygon fill="#bfbfbf" stroke="black" points="182,-24.5 182,-54.5 348,-54.5 348,-24.5 182,-24.5"/>
<text text-anchor="start" x="190" y="-42.5" font-family="Helvetica,sans-Serif" font-size="10.00">Torch.Core.Commands.ICommand</text>
<text text-anchor="middle" x="265" y="-31.5" font-family="Helvetica,sans-Serif" font-size="10.00">Context.Respond</text>
</a>
</g>
</g>
<!-- Node2 -->
<g id="node2" class="node">
<title>Node2</title>
<g id="a_node2"><a xlink:href="class_torch_1_1_core_1_1_commands_1_1_stop_command.html#aa737152df33f6bfbef7933394dce0ce8" target="_top" xlink:title="Executes the command with the given command context. This should only be called if CanExecute returns...">
<polygon fill="white" stroke="black" points="3,-49.5 3,-79.5 143,-79.5 143,-49.5 3,-49.5"/>
<text text-anchor="start" x="11" y="-67.5" font-family="Helvetica,sans-Serif" font-size="10.00">Torch.Core.Commands.Stop</text>
<text text-anchor="middle" x="73" y="-56.5" font-family="Helvetica,sans-Serif" font-size="10.00">Command.Execute</text>
</a>
</g>
</g>
<!-- Node1&#45;&gt;Node2 -->
<g id="edge1" class="edge">
<title>Node1&#45;&gt;Node2</title>
<path fill="none" stroke="midnightblue" d="M171.79,-51.63C162.19,-52.9 152.55,-54.16 143.27,-55.39"/>
<polygon fill="midnightblue" stroke="midnightblue" points="172.31,-55.09 181.77,-50.32 171.4,-48.15 172.31,-55.09"/>
</g>
<!-- Node3 -->
<g id="node3" class="node">
<title>Node3</title>
<g id="a_node3"><a xlink:href="class_torch_1_1_core_1_1_plugins_command.html#a5801d96e77cbc0a3d5a3a7a1e20c8f60" target="_top" xlink:title="Executes the command with the given command context. This should only be called if CanExecute returns...">
<polygon fill="white" stroke="black" points="0,-0.5 0,-30.5 146,-30.5 146,-0.5 0,-0.5"/>
<text text-anchor="start" x="8" y="-18.5" font-family="Helvetica,sans-Serif" font-size="10.00">Torch.Core.PluginsCommand.</text>
<text text-anchor="middle" x="73" y="-7.5" font-family="Helvetica,sans-Serif" font-size="10.00">Execute</text>
</a>
</g>
</g>
<!-- Node1&#45;&gt;Node3 -->
<g id="edge2" class="edge">
<title>Node1&#45;&gt;Node3</title>
<path fill="none" stroke="midnightblue" d="M171.74,-27.85C163.16,-26.76 154.56,-25.68 146.21,-24.62"/>
<polygon fill="midnightblue" stroke="midnightblue" points="171.41,-31.33 181.77,-29.11 172.29,-24.39 171.41,-31.33"/>
</g>
</g>
</svg>
