<?xml version="1.0" encoding="UTF-8" standalone="no"?>
<!DOCTYPE svg PUBLIC "-//W3C//DTD SVG 1.1//EN"
 "http://www.w3.org/Graphics/SVG/1.1/DTD/svg11.dtd">
<!-- Generated by graphviz version 2.46.1 (20210213.1702)
 -->
<!-- Title: Torch.Core.Permissions.IPermissionCollection Pages: 1 -->
<svg width="183pt" height="162pt"
 viewBox="0.00 0.00 183.00 162.00" xmlns="http://www.w3.org/2000/svg" xmlns:xlink="http://www.w3.org/1999/xlink">
<g id="graph0" class="graph" transform="scale(1 1) rotate(0) translate(4 158)">
<title>Torch.Core.Permissions.IPermissionCollection</title>
<polygon fill="white" stroke="transparent" points="-4,4 -4,-158 179,-158 179,4 -4,4"/>
<!-- Node1 -->
<g id="node1" class="node">
<title>Node1</title>
<g id="a_node1"><a xlink:title="A collection of PermissionExpressions and nested IPermissionCollections that can be evaluated as a si...">
<polygon fill="#bfbfbf" stroke="black" points="0,-67.5 0,-97.5 175,-97.5 175,-67.5 0,-67.5"/>
<text text-anchor="start" x="8" y="-85.5" font-family="Helvetica,sans-Serif" font-size="10.00">Torch.Core.Permissions.IPermission</text>
<text text-anchor="middle" x="87.5" y="-74.5" font-family="Helvetica,sans-Serif" font-size="10.00">Collection</text>
</a>
</g>
</g>
<!-- Node3 -->
<g id="node3" class="node">
<title>Node3</title>
<g id="a_node3"><a xlink:href="class_torch_1_1_core_1_1_permissions_1_1_permission_collection.html" target="_top" xlink:title=" ">
<polygon fill="white" stroke="black" points="1,-0.5 1,-30.5 174,-30.5 174,-0.5 1,-0.5"/>
<text text-anchor="start" x="9" y="-18.5" font-family="Helvetica,sans-Serif" font-size="10.00">Torch.Core.Permissions.Permission</text>
<text text-anchor="middle" x="87.5" y="-7.5" font-family="Helvetica,sans-Serif" font-size="10.00">Collection</text>
</a>
</g>
</g>
<!-- Node1&#45;&gt;Node3 -->
<g id="edge2" class="edge">
<title>Node1&#45;&gt;Node3</title>
<path fill="none" stroke="midnightblue" d="M87.5,-57.11C87.5,-48.15 87.5,-38.32 87.5,-30.58"/>
<polygon fill="midnightblue" stroke="midnightblue" points="84,-57.4 87.5,-67.4 91,-57.4 84,-57.4"/>
</g>
<!-- Node2 -->
<g id="node2" class="node">
<title>Node2</title>
<g id="a_node2"><a xlink:href="interface_torch_1_1_core_1_1_permissions_1_1_i_permission_evaluator.html" target="_top" xlink:title="An object capable of controlling access to a permission node.">
<polygon fill="white" stroke="black" points="34,-134.5 34,-153.5 141,-153.5 141,-134.5 34,-134.5"/>
<text text-anchor="middle" x="87.5" y="-141.5" font-family="Helvetica,sans-Serif" font-size="10.00">IPermissionEvaluator</text>
</a>
</g>
</g>
<!-- Node2&#45;&gt;Node1 -->
<g id="edge1" class="edge">
<title>Node2&#45;&gt;Node1</title>
<path fill="none" stroke="midnightblue" d="M87.5,-124.23C87.5,-115.59 87.5,-105.5 87.5,-97.52"/>
<polygon fill="midnightblue" stroke="midnightblue" points="84,-124.48 87.5,-134.48 91,-124.48 84,-124.48"/>
</g>
</g>
</svg>
