<?xml version="1.0" encoding="UTF-8" standalone="no"?>
<!DOCTYPE svg PUBLIC "-//W3C//DTD SVG 1.1//EN"
 "http://www.w3.org/Graphics/SVG/1.1/DTD/svg11.dtd">
<!-- Generated by graphviz version 2.46.1 (20210213.1702)
 -->
<!-- Title: Torch.Core.Permissions.IPermissionEvaluator Pages: 1 -->
<svg width="603pt" height="88pt"
 viewBox="0.00 0.00 603.00 88.00" xmlns="http://www.w3.org/2000/svg" xmlns:xlink="http://www.w3.org/1999/xlink">
<g id="graph0" class="graph" transform="scale(1 1) rotate(0) translate(4 84)">
<title>Torch.Core.Permissions.IPermissionEvaluator</title>
<polygon fill="white" stroke="transparent" points="-4,4 -4,-84 599,-84 599,4 -4,4"/>
<!-- Node1 -->
<g id="node1" class="node">
<title>Node1</title>
<g id="a_node1"><a xlink:title="An object capable of controlling access to a permission node.">
<polygon fill="#bfbfbf" stroke="black" points="0,-24.5 0,-54.5 175,-54.5 175,-24.5 0,-24.5"/>
<text text-anchor="start" x="8" y="-42.5" font-family="Helvetica,sans-Serif" font-size="10.00">Torch.Core.Permissions.IPermission</text>
<text text-anchor="middle" x="87.5" y="-31.5" font-family="Helvetica,sans-Serif" font-size="10.00">Evaluator</text>
</a>
</g>
</g>
<!-- Node2 -->
<g id="node2" class="node">
<title>Node2</title>
<g id="a_node2"><a xlink:href="interface_torch_1_1_core_1_1_permissions_1_1_i_permission_collection.html" target="_top" xlink:title="A collection of PermissionExpressions and nested IPermissionCollections that can be evaluated as a si...">
<polygon fill="white" stroke="black" points="211,-49.5 211,-79.5 386,-79.5 386,-49.5 211,-49.5"/>
<text text-anchor="start" x="219" y="-67.5" font-family="Helvetica,sans-Serif" font-size="10.00">Torch.Core.Permissions.IPermission</text>
<text text-anchor="middle" x="298.5" y="-56.5" font-family="Helvetica,sans-Serif" font-size="10.00">Collection</text>
</a>
</g>
</g>
<!-- Node1&#45;&gt;Node2 -->
<g id="edge1" class="edge">
<title>Node1&#45;&gt;Node2</title>
<path fill="none" stroke="midnightblue" d="M185.03,-51.05C193.59,-52.07 202.23,-53.1 210.71,-54.12"/>
<polygon fill="midnightblue" stroke="midnightblue" points="185.36,-47.56 175.02,-49.85 184.53,-54.51 185.36,-47.56"/>
</g>
<!-- Node4 -->
<g id="node4" class="node">
<title>Node4</title>
<g id="a_node4"><a xlink:href="class_torch_1_1_core_1_1_permissions_1_1_permission_expression.html" target="_top" xlink:title=" ">
<polygon fill="white" stroke="black" points="212,-0.5 212,-30.5 385,-30.5 385,-0.5 212,-0.5"/>
<text text-anchor="start" x="220" y="-18.5" font-family="Helvetica,sans-Serif" font-size="10.00">Torch.Core.Permissions.Permission</text>
<text text-anchor="middle" x="298.5" y="-7.5" font-family="Helvetica,sans-Serif" font-size="10.00">Expression</text>
</a>
</g>
</g>
<!-- Node1&#45;&gt;Node4 -->
<g id="edge3" class="edge">
<title>Node1&#45;&gt;Node4</title>
<path fill="none" stroke="midnightblue" d="M185.03,-28.42C193.93,-27.39 202.92,-26.36 211.72,-25.35"/>
<polygon fill="midnightblue" stroke="midnightblue" points="184.55,-24.95 175.02,-29.57 185.35,-31.9 184.55,-24.95"/>
</g>
<!-- Node3 -->
<g id="node3" class="node">
<title>Node3</title>
<g id="a_node3"><a xlink:href="class_torch_1_1_core_1_1_permissions_1_1_permission_collection.html" target="_top" xlink:title=" ">
<polygon fill="white" stroke="black" points="422,-49.5 422,-79.5 595,-79.5 595,-49.5 422,-49.5"/>
<text text-anchor="start" x="430" y="-67.5" font-family="Helvetica,sans-Serif" font-size="10.00">Torch.Core.Permissions.Permission</text>
<text text-anchor="middle" x="508.5" y="-56.5" font-family="Helvetica,sans-Serif" font-size="10.00">Collection</text>
</a>
</g>
</g>
<!-- Node2&#45;&gt;Node3 -->
<g id="edge2" class="edge">
<title>Node2&#45;&gt;Node3</title>
<path fill="none" stroke="midnightblue" d="M396.23,-64.5C404.81,-64.5 413.46,-64.5 421.94,-64.5"/>
<polygon fill="midnightblue" stroke="midnightblue" points="396.2,-61 386.2,-64.5 396.2,-68 396.2,-61"/>
</g>
</g>
</svg>
