<?xml version="1.0" encoding="UTF-8" standalone="no"?>
<!DOCTYPE svg PUBLIC "-//W3C//DTD SVG 1.1//EN"
 "http://www.w3.org/Graphics/SVG/1.1/DTD/svg11.dtd">
<!-- Generated by graphviz version 2.46.1 (20210213.1702)
 -->
<!-- Title: Torch.Core.Commands.ICommandService.AddProcessorStep Pages: 1 -->
<svg width="343pt" height="39pt"
 viewBox="0.00 0.00 343.00 39.00" xmlns="http://www.w3.org/2000/svg" xmlns:xlink="http://www.w3.org/1999/xlink">
<g id="graph0" class="graph" transform="scale(1 1) rotate(0) translate(4 35)">
<title>Torch.Core.Commands.ICommandService.AddProcessorStep</title>
<polygon fill="white" stroke="transparent" points="-4,4 -4,-35 339,-35 339,4 -4,4"/>
<!-- Node1 -->
<g id="node1" class="node">
<title>Node1</title>
<g id="a_node1"><a xlink:title="Appends a preprocessor to the end of the command handler pipeline.">
<polygon fill="#bfbfbf" stroke="black" points="169,-0.5 169,-30.5 335,-30.5 335,-0.5 169,-0.5"/>
<text text-anchor="start" x="177" y="-18.5" font-family="Helvetica,sans-Serif" font-size="10.00">Torch.Core.Commands.ICommand</text>
<text text-anchor="middle" x="252" y="-7.5" font-family="Helvetica,sans-Serif" font-size="10.00">Service.AddProcessorStep</text>
</a>
</g>
</g>
<!-- Node2 -->
<g id="node2" class="node">
<title>Node2</title>
<g id="a_node2"><a xlink:href="class_test_plugin_1_1_test_plugin.html#aacfef63a53195a48cadb5a18a45f6f50" target="_top" xlink:title="Initializes a new instance of the TestPlugin class. The plugin constructor can receive services by de...">
<polygon fill="white" stroke="black" points="0,-0.5 0,-30.5 133,-30.5 133,-0.5 0,-0.5"/>
<text text-anchor="start" x="8" y="-18.5" font-family="Helvetica,sans-Serif" font-size="10.00">TestPlugin.TestPlugin.Test</text>
<text text-anchor="middle" x="66.5" y="-7.5" font-family="Helvetica,sans-Serif" font-size="10.00">Plugin</text>
</a>
</g>
</g>
<!-- Node1&#45;&gt;Node2 -->
<g id="edge1" class="edge">
<title>Node1&#45;&gt;Node2</title>
<path fill="none" stroke="midnightblue" d="M158.73,-15.5C150.05,-15.5 141.37,-15.5 133.01,-15.5"/>
<polygon fill="midnightblue" stroke="midnightblue" points="158.91,-19 168.91,-15.5 158.91,-12 158.91,-19"/>
</g>
</g>
</svg>
