<?xml version="1.0" encoding="UTF-8" standalone="no"?>
<!DOCTYPE svg PUBLIC "-//W3C//DTD SVG 1.1//EN"
 "http://www.w3.org/Graphics/SVG/1.1/DTD/svg11.dtd">
<!-- Generated by graphviz version 2.46.1 (20210213.1702)
 -->
<!-- Title: Torch.Core.Permissions.IPermissionEvaluator.Evaluate Pages: 1 -->
<svg width="392pt" height="88pt"
 viewBox="0.00 0.00 392.00 88.00" xmlns="http://www.w3.org/2000/svg" xmlns:xlink="http://www.w3.org/1999/xlink">
<g id="graph0" class="graph" transform="scale(1 1) rotate(0) translate(4 84)">
<title>Torch.Core.Permissions.IPermissionEvaluator.Evaluate</title>
<polygon fill="white" stroke="transparent" points="-4,4 -4,-84 388,-84 388,4 -4,4"/>
<!-- Node1 -->
<g id="node1" class="node">
<title>Node1</title>
<g id="a_node1"><a xlink:title="Evaluates the permission node against this evaluator.">
<polygon fill="#bfbfbf" stroke="black" points="209,-24.5 209,-54.5 384,-54.5 384,-24.5 209,-24.5"/>
<text text-anchor="start" x="217" y="-42.5" font-family="Helvetica,sans-Serif" font-size="10.00">Torch.Core.Permissions.IPermission</text>
<text text-anchor="middle" x="296.5" y="-31.5" font-family="Helvetica,sans-Serif" font-size="10.00">Evaluator.Evaluate</text>
</a>
</g>
</g>
<!-- Node2 -->
<g id="node2" class="node">
<title>Node2</title>
<g id="a_node2"><a xlink:href="class_torch_1_1_core_1_1_permissions_1_1_permission_service.html#ac5e15c3e83777c595d6a12d535d35679" target="_top" xlink:title=" ">
<polygon fill="white" stroke="black" points="0,-49.5 0,-79.5 173,-79.5 173,-49.5 0,-49.5"/>
<text text-anchor="start" x="8" y="-67.5" font-family="Helvetica,sans-Serif" font-size="10.00">Torch.Core.Permissions.Permission</text>
<text text-anchor="middle" x="86.5" y="-56.5" font-family="Helvetica,sans-Serif" font-size="10.00">Service.IsAllowed</text>
</a>
</g>
</g>
<!-- Node1&#45;&gt;Node2 -->
<g id="edge1" class="edge">
<title>Node1&#45;&gt;Node2</title>
<path fill="none" stroke="midnightblue" d="M198.77,-51.13C190.19,-52.16 181.54,-53.2 173.06,-54.22"/>
<polygon fill="midnightblue" stroke="midnightblue" points="199.28,-54.59 208.8,-49.92 198.45,-47.64 199.28,-54.59"/>
</g>
<!-- Node3 -->
<g id="node3" class="node">
<title>Node3</title>
<g id="a_node3"><a xlink:href="class_torch_1_1_core_1_1_permissions_1_1_permission_service.html#a1b327d47fe62ae118d7529a40400fc85" target="_top" xlink:title=" ">
<polygon fill="white" stroke="black" points="0,-0.5 0,-30.5 173,-30.5 173,-0.5 0,-0.5"/>
<text text-anchor="start" x="8" y="-18.5" font-family="Helvetica,sans-Serif" font-size="10.00">Torch.Core.Permissions.Permission</text>
<text text-anchor="middle" x="86.5" y="-7.5" font-family="Helvetica,sans-Serif" font-size="10.00">Service.IsDenied</text>
</a>
</g>
</g>
<!-- Node1&#45;&gt;Node3 -->
<g id="edge2" class="edge">
<title>Node1&#45;&gt;Node3</title>
<path fill="none" stroke="midnightblue" d="M198.77,-28.34C190.19,-27.35 181.54,-26.35 173.06,-25.37"/>
<polygon fill="midnightblue" stroke="midnightblue" points="198.46,-31.83 208.8,-29.5 199.26,-24.87 198.46,-31.83"/>
</g>
</g>
</svg>
