<?xml version="1.0" encoding="UTF-8" standalone="no"?>
<!DOCTYPE svg PUBLIC "-//W3C//DTD SVG 1.1//EN"
 "http://www.w3.org/Graphics/SVG/1.1/DTD/svg11.dtd">
<!-- Generated by graphviz version 2.46.1 (20210213.1702)
 -->
<!-- Title: Torch.Core.ITorchCore Pages: 1 -->
<svg width="276pt" height="95pt"
 viewBox="0.00 0.00 276.00 95.00" xmlns="http://www.w3.org/2000/svg" xmlns:xlink="http://www.w3.org/1999/xlink">
<g id="graph0" class="graph" transform="scale(1 1) rotate(0) translate(4 91)">
<title>Torch.Core.ITorchCore</title>
<polygon fill="white" stroke="transparent" points="-4,4 -4,-91 272,-91 272,4 -4,4"/>
<!-- Node1 -->
<g id="node1" class="node">
<title>Node1</title>
<g id="a_node1"><a xlink:title="Represents an object responsible for controlling the lifetime of the Torch application.">
<polygon fill="#bfbfbf" stroke="black" points="66.5,-67.5 66.5,-86.5 179.5,-86.5 179.5,-67.5 66.5,-67.5"/>
<text text-anchor="middle" x="123" y="-74.5" font-family="Helvetica,sans-Serif" font-size="10.00">Torch.Core.ITorchCore</text>
</a>
</g>
</g>
<!-- Node2 -->
<g id="node2" class="node">
<title>Node2</title>
<g id="a_node2"><a xlink:href="class_test_plugin_1_1_test_core.html" target="_top" xlink:title="Test core implementation.">
<polygon fill="white" stroke="black" points="0,-6 0,-25 104,-25 104,-6 0,-6"/>
<text text-anchor="middle" x="52" y="-13" font-family="Helvetica,sans-Serif" font-size="10.00">TestPlugin.TestCore</text>
</a>
</g>
</g>
<!-- Node1&#45;&gt;Node2 -->
<g id="edge1" class="edge">
<title>Node1&#45;&gt;Node2</title>
<path fill="none" stroke="midnightblue" d="M105.07,-60.97C91.49,-49.59 73.32,-34.37 62.15,-25.01"/>
<polygon fill="midnightblue" stroke="midnightblue" points="102.91,-63.73 112.83,-67.48 107.41,-58.37 102.91,-63.73"/>
</g>
<!-- Node3 -->
<g id="node3" class="node">
<title>Node3</title>
<g id="a_node3"><a xlink:href="class_torch_1_1_space_engineers_1_1_space_dedi_core.html" target="_top" xlink:title="Runs a Space Engineers Dedicated server.">
<polygon fill="white" stroke="black" points="122,-0.5 122,-30.5 268,-30.5 268,-0.5 122,-0.5"/>
<text text-anchor="start" x="130" y="-18.5" font-family="Helvetica,sans-Serif" font-size="10.00">Torch.SpaceEngineers.Space</text>
<text text-anchor="middle" x="195" y="-7.5" font-family="Helvetica,sans-Serif" font-size="10.00">DediCore</text>
</a>
</g>
</g>
<!-- Node1&#45;&gt;Node3 -->
<g id="edge2" class="edge">
<title>Node1&#45;&gt;Node3</title>
<path fill="none" stroke="midnightblue" d="M141.25,-60.92C152.55,-51.58 166.97,-39.66 178.03,-30.52"/>
<polygon fill="midnightblue" stroke="midnightblue" points="138.79,-58.41 133.32,-67.48 143.25,-63.8 138.79,-58.41"/>
</g>
</g>
</svg>
